<?xml version="1.0" encoding="UTF-8" standalone="no"?>
<!-- Created with Inkscape (http://www.inkscape.org/) -->

<svg
   width="300"
   height="300"
   viewBox="0 0 79.374997 79.375"
   version="1.1"
   id="svg1"
   xml:space="preserve"
   sodipodi:docname="logo gradient.svg"
   inkscape:version="1.3.2 (091e20e, 2023-11-25, custom)"
   xmlns:inkscape="http://www.inkscape.org/namespaces/inkscape"
   xmlns:sodipodi="http://sodipodi.sourceforge.net/DTD/sodipodi-0.dtd"
   xmlns:xlink="http://www.w3.org/1999/xlink"
   xmlns="http://www.w3.org/2000/svg"
   xmlns:svg="http://www.w3.org/2000/svg"><sodipodi:namedview
     id="namedview1"
     pagecolor="#ffffff"
     bordercolor="#000000"
     borderopacity="0.25"
     inkscape:showpageshadow="2"
     inkscape:pageopacity="0.0"
     inkscape:pagecheckerboard="0"
     inkscape:deskcolor="#d1d1d1"
     inkscape:document-units="px"
     inkscape:zoom="1.4142136"
     inkscape:cx="119.50105"
     inkscape:cy="176.42314"
     inkscape:window-width="1366"
     inkscape:window-height="715"
     inkscape:window-x="-8"
     inkscape:window-y="-8"
     inkscape:window-maximized="1"
     inkscape:current-layer="layer1" /><defs
     id="defs1"><linearGradient
       id="linearGradient26"
       inkscape:collect="always"><stop
         style="stop-color:#003687;stop-opacity:1;"
         offset="0.06461538"
         id="stop26" /><stop
         style="stop-color:#086aff;stop-opacity:1;"
         offset="0.84097034"
         id="stop27" /></linearGradient><linearGradient
       inkscape:collect="always"
       xlink:href="#linearGradient26"
       id="linearGradient27"
       x1="14.749164"
       y1="38.444683"
       x2="70.565353"
       y2="38.444683"
       gradientUnits="userSpaceOnUse" /></defs><g
     inkscape:label="orelha"
     inkscape:groupmode="layer"
     id="layer1"
     style="display:inline"><path
       style="display:none;fill:#086aff;fill-opacity:1;stroke:none;stroke-width:1.16341"
       d="m 12.077651,34.839555 c -0.561964,-1.507655 -0.935673,-3.222416 -0.943453,-4.835658 -0.0095,-1.988341 0.260097,-4.064622 1.361805,-5.779199 2.809203,-4.371934 9.938346,-5.709103 14.678333,-4.296722 4.437405,1.322217 7.671152,4.85014 8.996692,9.250322 1.792955,5.951787 0.196617,12.645817 -3.700457,17.455542 -2.004215,2.473575 -4.702443,4.218447 -6.795727,6.6048 -2.363058,2.693896 -3.435492,6.167211 -6.520623,8.214046 -1.655686,1.09847 -3.629415,1.679793 -5.425371,0.547854 -0.567495,-0.357681 -1.051259,-0.819226 -1.481384,-1.3315 -0.987693,-1.176333 -1.527947,-2.581714 -2.2927865,-3.892116 -0.2776218,0.914704 0.6249955,2.382909 1.0327285,3.184459 2.389851,4.698134 7.435166,4.125976 10.879499,0.932896 2.071862,-1.920724 3.159486,-4.647276 5.0821,-6.712096 1.646034,-1.767782 3.723932,-3.012639 5.413087,-4.718079 2.863574,-2.891179 4.882593,-6.573574 5.912518,-10.49655 2.034674,-7.750016 -1.278121,-17.231465 -9.21319,-20.116811 -2.223959,-0.808677 -4.840908,-1.08112 -7.194515,-0.856994 -4.917692,0.468299 -10.286228,2.731198 -11.291753,8.118035 -0.234325,1.255324 -0.228194,2.62782 -0.06397,3.892113 0.163304,1.257254 0.429868,4.084746 1.566475,4.835658 m 8.138057,4.010057 c -0.588231,-1.075795 -2.050796,-1.433185 -2.462238,-2.712687 -0.459732,-1.42966 1.625611,-3.049603 2.934009,-2.925091 3.510589,0.334081 4.08835,5.193703 2.101132,7.405193 -2.602588,2.896308 -8.522109,1.169814 -9.990926,5.545041 -0.420607,1.252882 0.347847,2.571769 1.286724,3.365647 0.408461,0.345387 1.280372,0.767479 1.361348,1.356711 0.07094,0.516195 -0.54104,0.90711 -0.891306,1.174785 v 0.117943 c 0.436232,-4.6e-5 0.866341,0.0052 1.297372,-0.07262 1.118673,-0.201772 2.055277,-1.101395 1.035004,-2.143178 -0.807155,-0.824168 -3.906605,-1.429867 -3.002448,-3.209574 0.991452,-1.951527 3.474493,-2.400874 5.387786,-2.783487 2.88995,-0.57792 5.516338,-1.621862 6.324322,-4.764855 0.842189,-3.27605 -1.444106,-7.591438 -5.262836,-7.041172 -0.828921,0.119445 -1.576108,0.464634 -2.220438,0.99478 -0.361477,0.297416 -0.772585,0.950154 -1.316483,0.846806 -0.703124,-0.133602 -0.73301,-0.971794 -0.658877,-1.523157 0.191618,-1.425211 0.55138,-2.832867 1.411034,-4.010057 3.837978,-5.25563 13.379234,-1.061003 13.969222,4.835658 0.441465,4.412253 -2.731481,8.465455 -5.464229,11.592072 -0.869499,0.994818 -2.094024,1.910876 -2.771658,3.032841 1.756733,-0.456834 3.500454,-2.628654 4.728182,-3.896757 4.224871,-4.363789 7.776741,-11.231519 2.494634,-16.276021 -0.908867,-0.867982 -1.97289,-1.58658 -3.094816,-2.147544 -1.302065,-0.651032 -2.783718,-1.081627 -4.245943,-1.145662 -2.61816,-0.114653 -5.19515,0.403737 -6.89629,2.590009 -1.949715,2.505739 -2.736099,7.477843 -0.377762,10.004756 1.007432,1.079442 2.882393,1.671752 4.325481,1.78962 z"
       id="path201" /><path
       id="path2-7"
       style="display:inline;mix-blend-mode:normal;fill:url(#linearGradient27);stroke-width:2.68261;stroke-dasharray:none;fill-rule:nonzero;fill-opacity:1;stroke:none;stroke-opacity:1"
       d="M 38.989507,7.0429829 C 29.826403,7.1501693 21.162088,11.210777 15.246254,18.170468 c -0.01811,0.03101 -0.03578,0.06217 -0.05426,0.09302 -0.0099,0.01607 -0.01944,0.03224 -0.02894,0.04858 -0.0027,0.0047 -0.0035,-0.0022 -0.0062,0 -0.0092,0.01231 -0.021,0.01325 -0.02739,0.0067 -0.0068,0.01271 -0.01346,0.02546 -0.02015,0.03824 -0.0062,0.01189 -0.01462,0.01674 -0.0217,0.01654 -6.55e-4,0.0014 -0.0015,0.0027 -0.0021,0.0041 -0.02465,0.05425 -0.04056,0.111949 -0.05529,0.169499 -0.0112,0.04374 -0.03492,0.06384 -0.05839,0.07131 v 5.17e-4 c -2.18e-4,0.01143 -0.002,0.02404 -0.0057,0.03772 -0.01543,0.05666 -0.0181,0.115839 -0.0217,0.174149 -0.0034,0.06792 0.0017,0.135724 0.0098,0.203089 0.04177,0.02916 0.09042,0.04897 0.13901,0.06253 0.01929,0.0054 0.03893,0.0098 0.05839,0.01447 0.09433,0.01905 0.18986,0.03255 0.285771,0.04083 0.0015,-3.56e-4 0.0031,-9.12e-4 0.0047,-0.001 0.0063,-0.0014 0.01282,-0.0027 0.01912,-0.0041 0.02822,-0.0068 0.05654,-0.01274 0.08475,-0.01964 0.0047,-0.0011 0.0071,-0.0018 0.01033,-0.0026 0.0035,-0.0013 0.0069,-0.0028 0.01034,-0.0041 0.03,-0.01216 0.0609,-0.02196 0.09147,-0.03256 0.01747,-0.006 0.0087,-0.0035 0.02532,-0.0093 0.0012,-4.17e-4 0.0026,-4.7e-4 0.0036,-5.17e-4 8.71e-4,-4e-5 0.0019,-1.84e-4 0.0026,0 1.682272,-0.887988 3.58748,-1.407466 5.445146,-1.597318 2.170457,-0.221804 4.585949,0.04772 6.636804,0.84801 7.317171,2.854497 10.37605,12.24162 8.499739,19.908345 -0.949732,3.880831 -3.343097,4.749353 -5.983614,7.609355 -1.55781,1.686954 -1.46089,6.248658 -2.277329,8.605616 -0.711379,1.695058 -1.023788,3.303495 -2.293266,4.434303 -1.744482,1.553925 -2.89909,1.470323 -4.014076,1.879521 -2.208471,0.270738 -1.728696,-0.0347 -2.673785,0.127253 -0.672775,0.11529 -1.134561,0.362808 -0.938215,1.065501 2.013008,3.528627 13.198217,7.880635 20.898468,7.887852 17.438939,-9.8e-5 31.575919,-14.059111 31.575845,-31.4017 C 70.565426,21.102094 56.428446,7.0430807 38.989507,7.0429829 Z M 14.770314,19.437574 c -0.0024,3.64e-4 -0.0048,10e-4 -0.0072,10e-4 -0.0047,8.31e-4 -0.0093,0.0017 -0.01395,0.0026 3.39e-4,5.28e-4 10e-4,-5.6e-5 10e-4,0.0016 0.0067,-0.0016 0.01341,-0.0035 0.02015,-0.0052 z"
       sodipodi:nodetypes="cccccccccsccccccccccccccssccccccscsccccccccc" /></g><g
     inkscape:groupmode="layer"
     id="layer4"
     inkscape:label="risco"><path
       id="path1"
       style="display:inline;fill:#ffffff;stroke:none;stroke-width:0.294398"
       d="m 52.099444,22.677228 c -0.668733,0.02954 -1.258,0.653748 -1.714107,1.089856 -1.18928,1.137131 -2.28251,2.361332 -3.193087,3.735689 -4.002241,6.040634 -4.326815,14.129501 -0.881083,20.485571 1.033258,1.905967 2.361456,3.728616 3.996655,5.162993 0.484099,0.424643 1.091274,1.159381 1.79524,1.207161 0.100565,0.0067 0.203051,-1.95e-4 0.307474,-0.02429 0.777632,-0.179463 1.148008,-1.068091 0.737423,-1.743046 -0.378119,-0.621588 -1.140494,-1.090338 -1.665015,-1.586983 -0.65991,-0.624837 -1.244719,-1.354821 -1.788521,-2.08101 -4.165945,-5.563195 -4.498295,-13.244681 -1.067118,-19.239652 1.145952,-2.00221 2.749422,-3.364886 4.313948,-4.998145 0.750974,-0.783973 0.297615,-2.058478 -0.841809,-2.008146 z m 4.065902,4.842599 c -0.05572,-0.004 -0.112895,-0.0039 -0.171566,5.16e-4 -0.506315,0.03841 -0.882544,0.402007 -1.246435,0.716236 -0.87712,0.757386 -1.639246,1.654092 -2.284099,2.615344 -2.734955,4.076879 -3.136792,9.773481 -0.708483,14.098881 0.776907,1.383861 1.692795,2.559051 2.837552,3.660758 0.443519,0.426834 0.957205,0.90789 1.590084,0.860413 0.09041,-0.0067 0.183647,-0.02421 0.279053,-0.05426 1.268859,-0.399696 0.68307,-1.736234 0,-2.330607 -3.825412,-3.328697 -5.130097,-9.010381 -2.795695,-13.586767 0.539378,-1.057401 1.22352,-2.011654 2.02985,-2.880961 0.420826,-0.453686 1.021228,-0.79631 1.347205,-1.332218 0.443085,-0.728439 -0.04167,-1.706585 -0.877466,-1.767335 z m 4.35684,3.784782 c -0.03651,-0.0026 -0.07368,-0.0024 -0.112138,5.16e-4 -0.331887,0.02518 -0.578474,0.263761 -0.817004,0.469739 -0.574955,0.496468 -1.074882,1.084004 -1.497583,1.714107 -1.792768,2.6724 -2.056331,6.406507 -0.464571,9.241813 0.509264,0.907123 1.109445,1.677683 1.859834,2.399854 0.290727,0.279789 0.627977,0.594912 1.042831,0.56379 0.05926,-0.0044 0.119876,-0.01596 0.182417,-0.03566 0.83174,-0.262002 0.447754,-1.13846 0,-1.528072 -2.507562,-2.181966 -3.362649,-5.905573 -1.832446,-8.9054 0.353564,-0.693128 0.802119,-1.318942 1.330668,-1.888773 0.275855,-0.297392 0.669471,-0.522042 0.883151,-0.873332 0.290439,-0.477491 -0.02733,-1.118764 -0.575159,-1.158585 z" /></g></svg>
