<svg width="25" height="25" viewBox="0 0 25 25" fill="none" xmlns="http://www.w3.org/2000/svg">
<g clip-path="url(#clip0_2506_2738)">
<path d="M24.3125 12.8646L13.1979 25H3.125C1.40625 25 0 23.5937 0 21.875V14.5833C0 12.8646 1.40625 11.4583 3.125 11.4583H7.29167V10.4167C5.57292 10.4167 4.16667 9.01042 4.16667 7.29167H6.25C6.25 7.86458 6.71875 8.33333 7.29167 8.33333H9.77083C10.125 8.33333 10.4167 8.04167 10.4167 7.6875C10.4167 7.36458 10.1875 7.09375 9.875 7.04167L6.44792 6.46875C5.125 6.25 4.16667 5.11458 4.16667 3.77083C4.16667 2.26042 5.39583 1.04167 6.89583 1.04167H7.29167V0H9.375V1.04167C11.0937 1.04167 12.5 2.44792 12.5 4.16667H10.4167C10.4167 3.59375 9.94792 3.125 9.375 3.125H6.89583C6.54167 3.125 6.25 3.41667 6.25 3.77083C6.25 4.09375 6.47917 4.36458 6.79167 4.41667L10.2188 4.98958C11.5417 5.20833 12.5 6.34375 12.5 7.6875C12.5 9.19792 11.2708 10.4167 9.77083 10.4167H9.375V11.4583H12.2812C13.5521 11.4583 14.5833 12.4896 14.5833 13.7604C14.5833 14.8958 13.7292 15.8854 12.6042 16.0417L8.1875 16.6771L8.47917 18.7396L12.8958 18.1042C15.0417 17.8021 16.6667 15.9271 16.6667 13.7604C16.6667 13.5312 16.6354 13.3125 16.6042 13.0937L20.2917 9.19792C20.7708 8.67708 21.4375 8.36458 22.1562 8.33333C22.875 8.30208 23.5729 8.55208 24.1146 9.04167C25.2083 10.0417 25.3021 11.75 24.3125 12.8542V12.8646Z" fill="white"/>
</g>
<defs>
<clipPath id="clip0_2506_2738">
<rect width="25" height="25" fill="white"/>
</clipPath>
</defs>
</svg>
