<svg width="25" height="25" viewBox="0 0 25 25" fill="none" xmlns="http://www.w3.org/2000/svg">
<path d="M13.6327 5.29583C14.7421 4.57083 16.666 3.00312 16.666 0.833333V0H8.33268V0.833333C8.33268 3.00312 10.2566 4.57083 11.366 5.29583C5.77852 6.15417 1.04102 13.1562 1.04102 18.75C1.04102 22.1969 3.84414 25 7.29102 25H17.7077C21.1546 25 23.9577 22.1969 23.9577 18.75C23.9577 13.1562 19.2202 6.15417 13.6327 5.29583ZM11.0858 14.3333L14.2546 14.8615C15.6514 15.0937 16.666 16.2917 16.666 17.7083C16.666 19.4312 15.2639 20.8333 13.541 20.8333V21.875H11.4577V20.8333C9.73477 20.8333 8.33268 19.4312 8.33268 17.7083H10.416C10.416 18.2823 10.8837 18.75 11.4577 18.75H13.541C14.115 18.75 14.5827 18.2823 14.5827 17.7083C14.5827 17.3146 14.3004 16.9812 13.9118 16.9167L10.7431 16.3885C9.34622 16.1562 8.33164 14.9583 8.33164 13.5417C8.33164 11.8187 9.73372 10.4167 11.4566 10.4167V9.375H13.54V10.4167C15.2629 10.4167 16.665 11.8187 16.665 13.5417H14.5816C14.5816 12.9677 14.1139 12.5 13.54 12.5H11.4566C10.8827 12.5 10.415 12.9677 10.415 13.5417C10.415 13.9354 10.6973 14.2687 11.0858 14.3333Z" fill="white"/>
</svg>
