<svg width="25" height="25" viewBox="0 0 25 25" fill="none" xmlns="http://www.w3.org/2000/svg">
<g clip-path="url(#clip0_2506_2748)">
<path d="M11.2617 25H8.33255L11.4971 15.625H6.24922L5.11901 17.3469C4.83477 17.7785 4.44768 18.1328 3.99256 18.3777C3.53743 18.6226 3.02856 18.7506 2.51172 18.75H0.0440104L2.33568 12.5L0.0273438 6.25H2.49922C3.01519 6.24932 3.52325 6.37678 3.97778 6.62096C4.43232 6.86514 4.81909 7.21837 5.10339 7.64896L6.24922 9.375H11.5003L8.33255 5.35455e-08H11.2617C11.8231 -0.000103859 12.3742 0.151036 12.857 0.437534C13.3398 0.724032 13.7365 1.13531 14.0055 1.62812L18.3201 9.375H21.7628C22.5161 9.36553 23.2489 9.62116 23.8328 10.0972C24.4168 10.5732 24.8149 11.2394 24.9575 11.9792C25.0333 12.4274 25.0104 12.8868 24.8903 13.3253C24.7702 13.7638 24.5559 14.1708 24.2624 14.518C23.9688 14.8651 23.603 15.144 23.1905 15.3352C22.7781 15.5264 22.3288 15.6253 21.8742 15.625H18.3201L14.0013 23.3792C13.7318 23.87 13.3353 24.2794 12.8533 24.5645C12.3714 24.8497 11.8217 25.0001 11.2617 25Z" fill="white"/>
</g>
<defs>
<clipPath id="clip0_2506_2748">
<rect width="25" height="25" fill="white"/>
</clipPath>
</defs>
</svg>
