<svg width="22" height="5" viewBox="0 0 22 5" fill="none" xmlns="http://www.w3.org/2000/svg">
<path d="M1.85156 2.14844C1.85156 2.45302 1.97256 2.74513 2.18793 2.96051C2.40331 3.17588 2.69542 3.29688 3 3.29688C3.30458 3.29688 3.59669 3.17588 3.81207 2.96051C4.02744 2.74513 4.14844 2.45302 4.14844 2.14844C4.14844 1.84385 4.02744 1.55174 3.81207 1.33637C3.59669 1.121 3.30458 1 3 1C2.69542 1 2.40331 1.121 2.18793 1.33637C1.97256 1.55174 1.85156 1.84385 1.85156 2.14844ZM9.89062 2.14844C9.89062 2.45302 10.0116 2.74513 10.227 2.96051C10.4424 3.17588 10.7345 3.29688 11.0391 3.29688C11.3436 3.29688 11.6358 3.17588 11.8511 2.96051C12.0665 2.74513 12.1875 2.45302 12.1875 2.14844C12.1875 1.84385 12.0665 1.55174 11.8511 1.33637C11.6358 1.121 11.3436 1 11.0391 1C10.7345 1 10.4424 1.121 10.227 1.33637C10.0116 1.55174 9.89062 1.84385 9.89062 2.14844ZM17.9297 2.14844C17.9297 2.45302 18.0507 2.74513 18.2661 2.96051C18.4814 3.17588 18.7735 3.29688 19.0781 3.29688C19.3827 3.29688 19.6748 3.17588 19.8902 2.96051C20.1056 2.74513 20.2266 2.45302 20.2266 2.14844C20.2266 1.84385 20.1056 1.55174 19.8902 1.33637C19.6748 1.121 19.3827 1 19.0781 1C18.7735 1 18.4814 1.121 18.2661 1.33637C18.0507 1.55174 17.9297 1.84385 17.9297 2.14844Z" fill="white" stroke="white" stroke-width="2" stroke-linecap="round" stroke-linejoin="round"/>
</svg>
