<svg width="25" height="25" viewBox="0 0 25 25" fill="none" xmlns="http://www.w3.org/2000/svg">
<g clip-path="url(#clip0_2506_2746)">
<path d="M15.111 14.3594L5.34016 24.0802C4.686 24.7427 3.80162 25.049 2.93391 24.9969C2.20475 24.9531 1.48808 24.6563 0.927664 24.1031C-0.298377 22.8906 -0.310877 20.9083 0.900581 19.6833L10.7016 9.93021L15.11 14.3594H15.111ZM21.8495 7.91354L16.6829 2.69583C13.3839 -0.55729 10.0318 -0.172915 8.32662 0.344793C7.60787 0.564585 7.07454 1.12813 6.8985 1.85417C6.7235 2.57188 6.93496 3.30833 7.46204 3.82708L16.7027 13.1104L21.8495 7.91354ZM24.11 10.1958L23.3162 9.39375L18.1735 14.5875L18.9225 15.3396C19.4683 15.8896 20.087 16.2052 21.1443 16.2625C21.9839 16.3083 22.7725 15.9313 23.3641 15.3323L24.1058 14.5802C25.2964 13.375 25.3006 11.4094 24.111 10.1948L24.11 10.1958Z" fill="white"/>
</g>
<defs>
<clipPath id="clip0_2506_2746">
<rect width="25" height="25" fill="white"/>
</clipPath>
</defs>
</svg>
