<svg width="25" height="25" viewBox="0 0 25 25" fill="none" xmlns="http://www.w3.org/2000/svg">
<path d="M23.3427 11.4619C22.9906 10.5806 22.4843 9.75769 21.851 9.0379V5.16811C21.851 4.52436 21.5614 3.92644 21.0552 3.52644C20.5573 3.13373 19.9208 2.99207 19.3041 3.13686C17.4031 3.58998 15.977 4.66707 15.2135 6.20561H9.62705C6.9385 6.20561 4.52496 7.41186 2.94059 9.29832C1.69059 9.11602 1.84163 7.24519 3.09996 7.24727C4.46142 7.24207 4.46246 5.16915 3.09996 5.16394C-0.217745 5.15352 -1.20108 9.75352 1.77913 11.1108C-0.0531621 14.8816 1.54059 19.7379 5.1833 21.7483V21.8306C5.18538 25.3212 10.1208 26.1202 11.2552 22.8723H13.6958C14.8302 26.1223 19.7656 25.3192 19.7677 21.8306V21.7348C21.3927 20.7942 22.6541 19.3389 23.3427 17.616C24.1979 17.4337 24.976 16.7327 24.976 15.5806V13.4973C24.976 12.3452 24.1968 11.6441 23.3427 11.4619ZM18.726 13.4973C17.3635 13.491 17.3635 11.4202 18.726 11.4139C20.0885 11.4202 20.0885 13.491 18.726 13.4973ZM6.28017 4.65561C5.69475 -1.16835 14.3427 -1.73189 14.5593 4.12227H9.62809C8.46038 4.12227 7.33642 4.31498 6.28017 4.65561Z" fill="white"/>
</svg>
