<svg width="16" height="17" viewBox="0 0 16 17" fill="none" xmlns="http://www.w3.org/2000/svg">
<path d="M8.39514 16.5667L8.38569 16.5683L8.32979 16.5955L8.31405 16.5986L8.30302 16.5955L8.24712 16.5675C8.23873 16.5654 8.23243 16.567 8.22823 16.5722L8.22508 16.5799L8.21169 16.9135L8.21563 16.9291L8.2235 16.9392L8.30539 16.9969L8.3172 17L8.32664 16.9969L8.40853 16.9392L8.41797 16.9267L8.42112 16.9135L8.40774 16.5807C8.40564 16.5724 8.40144 16.5677 8.39514 16.5667ZM8.603 16.4786L8.59197 16.4802L8.4471 16.5527L8.43923 16.5605L8.43687 16.569L8.45104 16.9041L8.45498 16.9135L8.46128 16.9197L8.61953 16.9914C8.6295 16.994 8.63711 16.9919 8.64236 16.9852L8.64551 16.9743L8.61874 16.4958C8.61612 16.4859 8.61087 16.4802 8.603 16.4786ZM8.04006 16.4802C8.03659 16.4781 8.03244 16.4774 8.02848 16.4783C8.02452 16.4792 8.02105 16.4815 8.0188 16.4849L8.01407 16.4958L7.9873 16.9743C7.98783 16.9836 7.99229 16.9899 8.00069 16.993L8.0125 16.9914L8.17075 16.9189L8.17863 16.9127L8.18099 16.9041L8.19516 16.569L8.1928 16.5597L8.18492 16.5519L8.04006 16.4802Z" fill="white"/>
<path d="M7.58217 0C6.0286 0 4.53866 0.604994 3.44012 1.68189C2.34158 2.75878 1.72443 4.21937 1.72443 5.74233V8.63646C1.72455 8.76372 1.69447 8.88926 1.63657 9.00315L0.199746 11.8194C0.129559 11.9569 0.0964176 12.1098 0.103469 12.2635C0.11052 12.4172 0.157531 12.5665 0.240035 12.6974C0.32254 12.8282 0.437798 12.9362 0.574865 13.0111C0.711932 13.086 0.866255 13.1253 1.02318 13.1253H14.1412C14.2981 13.1253 14.4524 13.086 14.5895 13.0111C14.7265 12.9362 14.8418 12.8282 14.9243 12.6974C15.0068 12.5665 15.0538 12.4172 15.0609 12.2635C15.0679 12.1098 15.0348 11.9569 14.9646 11.8194L13.5286 9.00315C13.4704 8.88933 13.44 8.76378 13.4399 8.63646V5.74233C13.4399 4.21937 12.8228 2.75878 11.7242 1.68189C10.6257 0.604994 9.13574 0 7.58217 0ZM7.58217 15.5863C7.0628 15.5866 6.55612 15.4289 6.13198 15.1351C5.70783 14.8412 5.38709 14.4257 5.21397 13.9457H9.95037C9.77725 14.4257 9.45651 14.8412 9.03236 15.1351C8.60822 15.4289 8.10154 15.5866 7.58217 15.5863Z" fill="white"/>
</svg>
