<svg width="32" height="32" viewBox="0 0 32 32" fill="none" xmlns="http://www.w3.org/2000/svg">
<path fill-rule="evenodd" clip-rule="evenodd" d="M19.5328 5.1377C20.2581 5.35008 20.9515 5.62315 21.6128 5.9569L24.5456 4.28816C24.8514 4.11425 25.2097 4.04218 25.5637 4.08341C25.9176 4.12464 26.2469 4.27679 26.4992 4.51571L28.128 6.06006C28.38 6.29929 28.5405 6.61149 28.5839 6.94708C28.6274 7.28266 28.5514 7.6224 28.368 7.91236L26.608 10.6931C26.96 11.3201 27.248 11.9775 27.472 12.6652L30.7888 13.4526C31.1348 13.5348 31.4419 13.7242 31.6614 13.9908C31.8808 14.2574 32 14.5859 32 14.9241V17.1056C32 17.4438 31.8808 17.7723 31.6614 18.0389C31.4419 18.3055 31.1348 18.4949 30.7888 18.5771L27.472 19.3645C27.248 20.0522 26.96 20.7096 26.608 21.3366L28.368 24.1173C28.5514 24.4073 28.6274 24.747 28.5839 25.0826C28.5405 25.4182 28.38 25.7304 28.128 25.9696L26.4992 27.514C26.2469 27.7529 25.9176 27.9051 25.5637 27.9463C25.2097 27.9875 24.8514 27.9155 24.5456 27.7415L21.6128 26.0728C20.9515 26.4066 20.2581 26.6796 19.5328 26.892L18.7024 30.0368C18.6157 30.3649 18.4159 30.6561 18.1347 30.8641C17.8535 31.0722 17.5071 31.1852 17.1504 31.1852H14.8496C14.4929 31.1852 14.1465 31.0722 13.8653 30.8641C13.5841 30.6561 13.3843 30.3649 13.2976 30.0368L12.4672 26.892C11.7483 26.6814 11.0519 26.4071 10.3872 26.0728L7.4544 27.7415C7.14859 27.9155 6.79027 27.9875 6.43633 27.9463C6.08239 27.9051 5.75312 27.7529 5.5008 27.514L3.872 25.9696C3.62001 25.7304 3.45954 25.4182 3.41606 25.0826C3.37258 24.747 3.44858 24.4073 3.632 24.1173L5.392 21.3366C5.03943 20.7064 4.75015 20.0461 4.528 19.3645L1.2112 18.5771C0.865471 18.495 0.558557 18.3058 0.33914 18.0395C0.119723 17.7732 0.000365828 17.4451 0 17.1071V14.9256C9.37669e-06 14.5874 0.119203 14.2589 0.338649 13.9923C0.558094 13.7257 0.865205 13.5363 1.2112 13.4541L4.528 12.6668C4.752 11.979 5.04 11.3216 5.392 10.6946L3.632 7.91387C3.44858 7.62392 3.37258 7.28418 3.41606 6.94859C3.45954 6.61301 3.62001 6.30081 3.872 6.06157L5.5008 4.51571C5.75312 4.27679 6.08239 4.12464 6.43633 4.08341C6.79027 4.04218 7.14859 4.11425 7.4544 4.28816L10.3872 5.9569C11.0485 5.62315 11.7419 5.35008 12.4672 5.1377L13.2976 1.99288C13.3842 1.66508 13.5838 1.37408 13.8646 1.16604C14.1455 0.957998 14.4916 0.844829 14.848 0.844482H17.1488C17.5055 0.844491 17.8519 0.957505 18.1331 1.16557C18.4143 1.37364 18.6141 1.66483 18.7008 1.99288L19.5328 5.1377ZM16 22.083C17.6974 22.083 19.3253 21.4437 20.5255 20.3057C21.7257 19.1677 22.4 17.6242 22.4 16.0149C22.4 14.4055 21.7257 12.862 20.5255 11.724C19.3253 10.586 17.6974 9.9467 16 9.9467C14.3026 9.9467 12.6747 10.586 11.4745 11.724C10.2743 12.862 9.6 14.4055 9.6 16.0149C9.6 17.6242 10.2743 19.1677 11.4745 20.3057C12.6747 21.4437 14.3026 22.083 16 22.083Z" fill="white"/>
</svg>
