<svg width="15" height="16" viewBox="0 0 15 16" fill="none" xmlns="http://www.w3.org/2000/svg">
<path d="M0 5.33333V4.66667C0 2.82867 1.40188 1.33333 3.125 1.33333H3.75V0.666667C3.75 0.298667 4.02938 0 4.375 0C4.72063 0 5 0.298667 5 0.666667V1.33333H10V0.666667C10 0.298667 10.2794 0 10.625 0C10.9706 0 11.25 0.298667 11.25 0.666667V1.33333H11.875C13.5981 1.33333 15 2.82867 15 4.66667V5.33333H0ZM15 6.66667V12.6667C15 14.5047 13.5981 16 11.875 16H3.125C1.40188 16 0 14.5047 0 12.6667V6.66667H15ZM7.5 12.6667C7.5 12.2987 7.22062 12 6.875 12H3.75C3.40438 12 3.125 12.2987 3.125 12.6667C3.125 13.0347 3.40438 13.3333 3.75 13.3333H6.875C7.22062 13.3333 7.5 13.0347 7.5 12.6667ZM11.875 10C11.875 9.632 11.5956 9.33333 11.25 9.33333H3.75C3.40438 9.33333 3.125 9.632 3.125 10C3.125 10.368 3.40438 10.6667 3.75 10.6667H11.25C11.5956 10.6667 11.875 10.368 11.875 10Z" fill="#7298A8"/>
</svg>
