<svg width="13" height="15" viewBox="0 0 13 15" fill="none" xmlns="http://www.w3.org/2000/svg">
<path d="M6.5 0C4.77679 0.00181943 3.12469 0.659546 1.90613 1.82889C0.687573 2.99823 0.00206847 4.58371 0 6.23749C0 7.84374 1.29596 10.3575 3.85207 13.7087C4.15637 14.1088 4.55479 14.4343 5.01492 14.6587C5.47505 14.883 5.98388 15 6.5 15C7.01612 15 7.52495 14.883 7.98508 14.6587C8.44521 14.4343 8.84363 14.1088 9.14793 13.7087C11.704 10.3575 13 7.84374 13 6.23749C12.9979 4.58371 12.3124 2.99823 11.0939 1.82889C9.87531 0.659546 8.22321 0.00181943 6.5 0ZM6.5 8.72374C5.98479 8.72374 5.48115 8.57711 5.05277 8.30241C4.62439 8.02771 4.2905 7.63726 4.09334 7.18045C3.89618 6.72363 3.84459 6.22097 3.9451 5.73602C4.04562 5.25106 4.29371 4.80561 4.65802 4.45598C5.02233 4.10635 5.48649 3.86824 5.9918 3.77178C6.49711 3.67532 7.02088 3.72483 7.49687 3.91405C7.97286 4.10326 8.3797 4.42369 8.66594 4.83482C8.95217 5.24594 9.10495 5.72929 9.10495 6.22374C9.10495 6.88678 8.8305 7.52266 8.34198 7.9915C7.85345 8.46034 7.19088 8.72374 6.5 8.72374Z" fill="#7298A8"/>
</svg>
