<svg width="17" height="17" viewBox="0 0 17 17" fill="none" xmlns="http://www.w3.org/2000/svg">
<path d="M17 16.2909C17 16.4789 16.9254 16.6593 16.7925 16.7923C16.6597 16.9253 16.4795 17 16.2917 17H0.708333C0.520472 17 0.340304 16.9253 0.207466 16.7923C0.0746278 16.6593 0 16.4789 0 16.2909C0 16.1028 0.0746278 15.9224 0.207466 15.7894C0.340304 15.6564 0.520472 15.5817 0.708333 15.5817H16.2917C16.4795 15.5817 16.6597 15.6564 16.7925 15.7894C16.9254 15.9224 17 16.1028 17 16.2909ZM2.65625 10.6178C3.41275 10.6178 3.89583 10.1519 3.89583 9.90869C3.89583 9.72062 3.97046 9.54025 4.1033 9.40726C4.23614 9.27427 4.4163 9.19956 4.60417 9.19956C4.79203 9.19956 4.9722 9.27427 5.10503 9.40726C5.23787 9.54025 5.3125 9.72062 5.3125 9.90869C5.3125 10.1257 5.78071 10.6178 6.55208 10.6178C7.30858 10.6178 7.79167 10.1519 7.79167 9.90869C7.79167 9.72062 7.86629 9.54025 7.99913 9.40726C8.13197 9.27427 8.31214 9.19956 8.5 9.19956C8.68786 9.19956 8.86803 9.27427 9.00087 9.40726C9.13371 9.54025 9.20833 9.72062 9.20833 9.90869C9.20833 10.1257 9.67654 10.6178 10.4479 10.6178C11.2044 10.6178 11.6875 10.1519 11.6875 9.90869C11.6875 9.72062 11.7621 9.54025 11.895 9.40726C12.0278 9.27427 12.208 9.19956 12.3958 9.19956C12.5837 9.19956 12.7639 9.27427 12.8967 9.40726C13.0295 9.54025 13.1042 9.72062 13.1042 9.90869C13.1042 10.1257 13.5724 10.6178 14.3438 10.6178C15.1151 10.6178 15.5833 10.1257 15.5833 9.90869C15.5822 8.96867 15.2087 8.06747 14.5448 7.40278C13.8808 6.73808 12.9806 6.36416 12.0417 6.36303H9.20833V4.81429C9.62123 4.66815 9.97894 4.39787 10.2325 4.04042C10.4861 3.68297 10.6232 3.25581 10.625 2.81738C10.4729 1.91395 10.0625 1.07401 9.4435 0.399242C9.32096 0.272916 9.17435 0.17249 9.01235 0.103913C8.85035 0.0353351 8.67624 0 8.50035 0C8.32446 0 8.15036 0.0353351 7.98836 0.103913C7.82635 0.17249 7.67974 0.272916 7.55721 0.399242C6.93768 1.07376 6.52701 1.91378 6.375 2.81738C6.37682 3.25581 6.51389 3.68297 6.76748 4.04042C7.02106 4.39787 7.37877 4.66815 7.79167 4.81429V6.36303H4.95833C4.01937 6.36416 3.11919 6.73808 2.45524 7.40278C1.79129 8.06747 1.41779 8.96867 1.41667 9.90869C1.41667 10.1257 1.88487 10.6178 2.65625 10.6178ZM2.125 14.1635H14.875C15.0629 14.1635 15.243 14.0888 15.3759 13.9558C15.5087 13.8228 15.5833 13.6424 15.5833 13.4543V11.7702C15.193 11.9437 14.7709 12.0342 14.3438 12.0361C13.6305 12.0415 12.939 11.7898 12.3958 11.327C11.8495 11.7829 11.1611 12.0335 10.4498 12.0355C9.73852 12.0374 9.04886 11.7906 8.5 11.3376C7.95114 11.7906 7.26148 12.0374 6.55017 12.0355C5.83885 12.0335 5.15055 11.7829 4.60417 11.327C4.06096 11.7898 3.36954 12.0415 2.65625 12.0361C2.22913 12.0342 1.80704 11.9437 1.41667 11.7702V13.4543C1.41667 13.6424 1.49129 13.8228 1.62413 13.9558C1.75697 14.0888 1.93714 14.1635 2.125 14.1635Z" fill="#7298A8"/>
</svg>
