<?xml version="1.0" encoding="UTF-8" standalone="no"?>
<!-- Created with Inkscape (http://www.inkscape.org/) -->

<svg
   width="1080"
   height="1080"
   viewBox="0 0 285.75 285.75001"
   version="1.1"
   id="svg1"
   xml:space="preserve"
   inkscape:export-filename="sheepicon.png"
   inkscape:export-xdpi="96"
   inkscape:export-ydpi="96"
   inkscape:version="1.4 (86a8ad7, 2024-10-11)"
   sodipodi:docname="iconsheep.svg"
   xmlns:inkscape="http://www.inkscape.org/namespaces/inkscape"
   xmlns:sodipodi="http://sodipodi.sourceforge.net/DTD/sodipodi-0.dtd"
   xmlns="http://www.w3.org/2000/svg"
   xmlns:svg="http://www.w3.org/2000/svg"><sodipodi:namedview
     id="namedview1"
     pagecolor="#000000"
     bordercolor="#000000"
     borderopacity="0.25"
     inkscape:showpageshadow="2"
     inkscape:pageopacity="0.0"
     inkscape:pagecheckerboard="0"
     inkscape:deskcolor="#d1d1d1"
     inkscape:document-units="px"
     inkscape:zoom="0.44652484"
     inkscape:cx="332.56829"
     inkscape:cy="473.65786"
     inkscape:window-width="1440"
     inkscape:window-height="829"
     inkscape:window-x="-8"
     inkscape:window-y="-8"
     inkscape:window-maximized="1"
     inkscape:current-layer="layer2" /><defs
     id="defs1"><inkscape:path-effect
       effect="powerclip"
       message=""
       id="path-effect14"
       is_visible="true"
       lpeversion="1"
       inverse="true"
       flatten="false"
       hide_clip="false" /><clipPath
       clipPathUnits="userSpaceOnUse"
       id="clipPath12"><g
         id="g14"
         style="display:none"><g
           id="g13"><path
             style="fill:#3173c9;fill-opacity:1;stroke:#4949c5;stroke-width:0.264583"
             d="m 193.9392,120.77337 c -2.01889,0.048 -3.33487,2.48474 -3.35191,4.50413 -0.0177,2.10133 1.30428,4.94731 3.40429,4.87074 2.12536,-0.0775 3.18576,-2.58686 3.19478,-4.71362 0.009,-2.17886 -1.0689,-4.71303 -3.24716,-4.66125 z"
             id="path12"
             sodipodi:nodetypes="sssss" /><path
             style="fill:#3173c9;fill-opacity:1;stroke:#4949c5;stroke-width:0.264583"
             d="m 208.65616,120.87812 c -1.99506,0.0102 -3.1486,2.61622 -3.24716,4.60887 -0.10569,2.13674 0.74987,4.99256 2.88055,5.18497 2.17004,0.19597 3.64109,-2.48373 3.71852,-4.66123 0.0788,-2.21623 -1.13431,-5.14392 -3.35191,-5.13261 z"
             id="path13"
             sodipodi:nodetypes="sssss" /></g></g><path
         id="lpe_path-effect14"
         class="powerclip"
         d="m 152.09405,72.102301 h 96.51028 V 173.6622 h -96.51028 z m 41.84515,48.671069 c -2.01889,0.048 -3.33487,2.48474 -3.35191,4.50413 -0.0177,2.10133 1.30428,4.94731 3.40429,4.87074 2.12536,-0.0775 3.18576,-2.58686 3.19478,-4.71362 0.009,-2.17886 -1.0689,-4.71303 -3.24716,-4.66125 z m 14.71696,0.10475 c -1.99506,0.0102 -3.1486,2.61622 -3.24716,4.60887 -0.10569,2.13674 0.74987,4.99256 2.88055,5.18497 2.17004,0.19597 3.64109,-2.48373 3.71852,-4.66123 0.0788,-2.21623 -1.13431,-5.14392 -3.35191,-5.13261 z" /></clipPath></defs><g
     inkscape:groupmode="layer"
     id="layer2"
     inkscape:label="Camada 2"><g
       id="g15"><path
         style="fill:#ffffff;fill-opacity:1;stroke:#4949c5;stroke-width:0.264583"
         d="m 70.478873,96.039524 c 5.520204,-14.866283 15.109618,-17.16589 28.471812,-7.814262 2.451945,-11.593199 14.478855,-18.754889 24.045705,-5.016731 9.45683,-11.763365 19.02898,-11.994026 28.71646,-0.691964 6.25208,-3.168978 11.64378,-6.477368 18.34571,-1.099103 3.73237,5.520213 0.86921,9.541933 1.14978,9.647303 -2.16644,0.812286 -1.97051,2.85217 -1.85913,4.966063 l 1.65645,1.757787 c 0.67278,1.324951 0.57747,2.430443 0.11183,3.430133 -32.98746,5.97542 -15.91041,29.99284 2.76786,19.37495 -0.50128,20.54272 -1.16282,33.75778 3.30891,40.68335 4.8482,7.50861 13.59012,8.84059 21.97922,9.43237 2.039,0.14384 5.00958,-0.44403 5.7713,1.34127 0.97374,2.28223 0.22076,4.02612 -1.11124,5.7111 -0.94347,1.19349 -2.61105,3.02388 -4.25695,3.51408 -2.14863,0.63993 -7.5569,0.36437 -7.5569,0.36437 -1.23425,11.16873 -7.10817,17.00452 -21.01838,9.94697 -7.42946,6.79376 -15.34178,11.45721 -25.51613,6.14117 -7.78391,9.47953 -16.99078,11.57323 -28.19748,3.28682 -5.18816,-0.15282 -11.19082,1.20748 -15.02576,-2.48512 -5.429351,1.21326 -9.153656,-4.45633 -12.354605,-10.88675 -3.028183,2.93428 -18.402383,8.40073 -18.470759,-6.23846 -11.755943,0.67936 -15.142831,-7.01033 -13.657678,-19.57206 -10.438529,-3.18038 -13.481372,-10.9238 -7.381862,-23.48561 -8.03275,-17.59727 5.369248,-22.2002 5.137563,-22.75206 -1.9328,-4.60378 -4.969205,-24.489725 14.944274,-19.555616 z"
         id="path1"
         sodipodi:nodetypes="ccccccccccssssscccccccccsc" /><path
         style="fill:#ffffff;fill-opacity:1;stroke:#4949c5;stroke-width:0.264583"
         d="m 70.753198,192.32241 c 1.124442,-1.37338 3.37332,-0.47572 3.37332,-0.47572 1.902409,1.57173 4.008253,2.15838 6.120702,2.27063 3.387781,0.18002 6.039016,-2.94127 7.785863,-1.72633 11.431939,7.95094 3.352844,16.76576 1.489609,18.0522 -7.176135,2.55328 -14.70886,0.66433 -18.466758,-4.8005 -2.146504,-3.1215 -3.380993,-9.56054 -0.302736,-13.32028 z"
         id="path2"
         sodipodi:nodetypes="scsscss" /><path
         style="fill:#ffffff;fill-opacity:1;stroke:#4949c5;stroke-width:0.264583"
         d="m 100.54943,200.67072 c 2.45405,-0.83822 3.76829,1.79214 5.99952,1.913 2.08553,0.11296 4.18912,-0.15311 6.29393,-0.44512 9.47197,4.63115 5.42727,13.05751 2.38529,14.06713 -9.57865,3.1791 -13.87495,-0.13747 -15.808058,-2.3464 -0.175075,-0.20005 -6.155384,-10.70039 1.129318,-13.18861 z"
         id="path3"
         sodipodi:nodetypes="sscsss" /><path
         style="fill:#ffffff;fill-opacity:1;stroke:#4949c5;stroke-width:0.264583"
         d="m 152.90617,202.39374 c 10.07804,2.29093 10.77418,-4.43935 14.98201,-3.61898 2.57681,0.50238 3.22628,11.93585 -0.56092,15.4122 -4.35367,3.99632 -14.29976,3.95682 -17.70781,-0.87125 -2.19251,-3.10605 -0.25667,-11.72745 3.28672,-10.92197 z"
         id="path4"
         sodipodi:nodetypes="ssaas" /><path
         style="fill:#ffffff;fill-opacity:1;stroke:#4949c5;stroke-width:0.264583"
         d="m 179.32537,211.61832 c -6.16804,-0.29483 -8.49917,-12.8438 -4.83144,-15.63844 2.23496,-1.70293 4.02981,2.30163 7.49464,1.989 5.50972,-0.49713 5.19073,-3.1647 7.00032,-2.19138 5.32273,2.86292 8.03676,11.26521 1.22322,15.16805 -2.62676,1.50463 -6.19977,0.8968 -10.88674,0.67277 z"
         id="path5"
         sodipodi:nodetypes="ssssss" /><path
         style="fill:#ffffff;fill-opacity:1;stroke:#4949c5;stroke-width:0.264583"
         d="m 174.67459,83.810036 c 1.58949,-3.278697 8.70964,-1.170952 10.92381,-0.396773 -1.84218,-6.221113 9.37208,-9.641663 17.02343,-0.5005 1.0409,-7.190531 11.76927,-8.363128 12.65318,1.235789 2.84497,-4.312067 18.71782,-1.821672 10.94712,9.862474 6.77621,7.558944 -0.95874,9.663294 -5.14001,9.437414 9.35868,1.85774 17.68036,3.93293 20.93088,7.95808 5.52787,6.84522 -5.572,23.3252 -17.8419,6.91862 2.45405,12.69613 2.37065,22.34154 0.11136,34.77163 -2.35359,14.07935 -36.01658,26.50558 -46.27502,-0.69196 -4.95193,-18.54819 0.0188,-32.43927 3.28682,-42.20973 -0.1732,0.54124 -18.368,16.12601 -23.22946,7.33918 -5.98654,-10.82033 21.82925,-15.97836 22.19152,-15.98871 -2.93736,-1.38711 -6.82104,-2.325956 -7.29101,-4.881828 -1.4704,-1.734805 -1.11419,-4.448529 4.75963,-6.599044 -1.0715,-1.173506 -4.27694,-3.724529 -3.05035,-6.254642 z"
         id="path6"
         sodipodi:nodetypes="scccccscsccscccs"
         clip-path="url(#clipPath12)"
         inkscape:path-effect="#path-effect14"
         inkscape:original-d="m 174.67459,83.810036 c 1.58949,-3.278697 8.70964,-1.170952 10.92381,-0.396773 -1.84218,-6.221113 9.37208,-9.641663 17.02343,-0.5005 1.0409,-7.190531 11.76927,-8.363128 12.65318,1.235789 2.84497,-4.312067 18.71782,-1.821672 10.94712,9.862474 6.77621,7.558944 -0.95874,9.663294 -5.14001,9.437414 9.35868,1.85774 17.68036,3.93293 20.93088,7.95808 5.52787,6.84522 -5.572,23.3252 -17.8419,6.91862 2.45405,12.69613 2.37065,22.34154 0.11136,34.77163 -2.35359,14.07935 -36.01658,26.50558 -46.27502,-0.69196 -4.95193,-18.54819 0.0188,-32.43927 3.28682,-42.20973 -0.1732,0.54124 -18.368,16.12601 -23.22946,7.33918 -5.98654,-10.82033 21.82925,-15.97836 22.19152,-15.98871 -2.93736,-1.38711 -6.82104,-2.325956 -7.29101,-4.881828 -1.4704,-1.734805 -1.11419,-4.448529 4.75963,-6.599044 -1.0715,-1.173506 -4.27694,-3.724529 -3.05035,-6.254642 z" /></g></g></svg>
